<?xml version="1.0" encoding="iso-8859-1"?>
<svg aria-hidden="true" style="position: absolute; width: 0; height: 0; overflow: hidden;" version="1.1"
  xmlns="http://www.w3.org/2000/svg" xmlns:xlink="http://www.w3.org/1999/xlink">
  <defs>
    <symbol id="play" version="1.1" x="0px" y="0px" viewBox="0 0 512 512" style="enable-background:new 0 0 512 512;"
      xml:space="preserve">

      <title>Play</title>
      <g>
        <g>
          <g>
            <path d="M256,0C114.833,0,0,114.844,0,256s114.833,256,256,256s256-114.844,256-256S397.167,0,256,0z M256,490.667
				C126.604,490.667,21.333,385.396,21.333,256S126.604,21.333,256,21.333S490.667,126.604,490.667,256S385.396,490.667,256,490.667
				z" />
            <path
              d="M357.771,247.031l-149.333-96c-3.271-2.135-7.5-2.25-10.875-0.396C194.125,152.51,192,156.094,192,160v192
				c0,3.906,2.125,7.49,5.563,9.365c1.583,0.865,3.354,1.302,5.104,1.302c2,0,4.021-0.563,5.771-1.698l149.333-96
				c3.042-1.958,4.896-5.344,4.896-8.969S360.813,248.99,357.771,247.031z M213.333,332.458V179.542L332.271,256L213.333,332.458z" />
          </g>
        </g>
      </g>
      <g>
      </g>
      <g>
      </g>
      <g>
      </g>
      <g>
      </g>
      <g>
      </g>
      <g>
      </g>
      <g>
      </g>
      <g>
      </g>
      <g>
      </g>
      <g>
      </g>
      <g>
      </g>
      <g>
      </g>
      <g>
      </g>
      <g>
      </g>
      <g>
      </g>

    </symbol>

    <symbol version="1.1" id="pause" x="0px" y="0px" viewBox="0 0 480 480" style="enable-background:new 0 0 480 480;"
      xml:space="preserve">

      <title>Pause</title>
      <g>
        <g>
          <path d="M240,0C107.452,0,0,107.452,0,240s107.452,240,240,240c132.486-0.15,239.85-107.514,240-240C480,107.452,372.548,0,240,0z
			 M240,464C116.288,464,16,363.712,16,240S116.288,16,240,16c123.653,0.141,223.859,100.347,224,224
			C464,363.712,363.712,464,240,464z" />
        </g>
      </g>
      <g>
        <g>
          <path
            d="M200,136c-4.418,0-8,3.582-8,8v192c0,4.418,3.582,8,8,8s8-3.582,8-8V144C208,139.582,204.418,136,200,136z" />
        </g>
      </g>
      <g>
        <g>
          <path
            d="M280,136c-4.418,0-8,3.582-8,8v192c0,4.418,3.582,8,8,8s8-3.582,8-8V144C288,139.582,284.418,136,280,136z" />
        </g>
      </g>
      <g>
      </g>
      <g>
      </g>
      <g>
      </g>
      <g>
      </g>
      <g>
      </g>
      <g>
      </g>
      <g>
      </g>
      <g>
      </g>
      <g>
      </g>
      <g>
      </g>
      <g>
      </g>
      <g>
      </g>
      <g>
      </g>
      <g>
      </g>
      <g>
      </g>
    </symbol>
    <symbol version="1.1" id="redo" x="0px" y="0px" viewBox="0 0 480 480" style="enable-background:new 0 0 480 480;" xml:space="preserve">
      <title>redo</title>
      <g>
        <path d="M449.953,13.318v51.519C345.032-24.102,179.812-17.418,78.973,83.42c-105.297,105.279-105.297,276.592,0,381.889
		l12.746-12.745c-98.258-98.259-98.258-258.176,0-356.434C185.172,2.71,337.561-4.363,435.613,76.327h-48.669V94.33h72.01
		c4.968,0,9.001-4.033,9.002-9.002v-72.01H449.953L449.953,13.318z" />
      </g>
      <g>
      </g>
      <g>
      </g>
      <g>
      </g>
      <g>
      </g>
      <g>
      </g>
      <g>
      </g>
      <g>
      </g>
      <g>
      </g>
      <g>
      </g>
      <g>
      </g>
      <g>
      </g>
      <g>
      </g>
      <g>
      </g>
      <g>
      </g>
      <g>
      </g>
    </symbol>
  </defs>
</svg>
