<?xml version="1.0" encoding="utf-8"?>
<!-- Generator: Adobe Illustrator 24.1.2, SVG Export Plug-In . SVG Version: 6.00 Build 0)  -->
<svg version="1.1" id="Layer_1" xmlns="http://www.w3.org/2000/svg" xmlns:xlink="http://www.w3.org/1999/xlink" x="0px" y="0px"
	 viewBox="0 0 32 32" style="enable-background:new 0 0 32 32;" xml:space="preserve">
<path d="M24,0.2l-22,0c-1.3,0-2.3,1-2.3,2.3l0,5.1l3.8,0C3.7,7.2,4,6.8,4.4,6.4c1.3-1.3,3.4-1.3,4.7,0c0.4,0.4,0.6,0.8,0.8,1.2
	l6.3,0c0.2-0.5,0.4-0.9,0.8-1.2c1.3-1.3,3.4-1.3,4.7,0c1.3,1.3,1.3,3.4,0,4.7c-1.3,1.3-3.4,1.3-4.7,0c-0.4-0.4-0.6-0.8-0.8-1.2
	l-6.3,0c0,0.1-0.1,0.2-0.1,0.3l6.6,6.6c1.2-0.6,2.8-0.4,3.8,0.7c1.3,1.3,1.3,3.4,0,4.7c-1.3,1.3-3.4,1.3-4.7,0c-1-1-1.2-2.6-0.7-3.8
	l-6.6-6.6c-1.2,0.6-2.8,0.4-3.8-0.7C4,10.7,3.7,10.3,3.6,9.9h-3.8l0,14.5c0,1.3,1,2.3,2.3,2.3l22,0c1.3,0,2.3-1,2.3-2.3V2.5
	C26.3,1.3,25.2,0.2,24,0.2L24,0.2z"/>
</svg>
