<?xml version="1.0" encoding="utf-8"?>
<!-- Generator: Adobe Illustrator 24.1.2, SVG Export Plug-In . SVG Version: 6.00 Build 0)  -->
<svg version="1.1" id="Layer_1" xmlns="http://www.w3.org/2000/svg" xmlns:xlink="http://www.w3.org/1999/xlink" x="0px" y="0px"
	 viewBox="0 0 23.9 23.8" style="enable-background:new 0 0 23.9 23.8;" xml:space="preserve">
<path d="M21.8,0L2.1,0C0.9,0,0,0.9,0,2.1l0,4.6h3.5c0.1-0.4,0.4-0.8,0.7-1.1c1.2-1.2,3.1-1.2,4.2,0C8.7,5.9,9,6.2,9.1,6.7l5.7,0
	c0.1-0.4,0.4-0.8,0.7-1.1c1.2-1.2,3.1-1.2,4.2,0s1.2,3.1,0,4.2c-1.2,1.2-3.1,1.2-4.2,0c-0.3-0.3-0.6-0.7-0.7-1.1H9.1
	C9.1,8.8,9,8.9,9,8.9l5.9,5.9c1.1-0.5,2.5-0.3,3.4,0.6c1.2,1.2,1.2,3.1,0,4.2c-1.2,1.2-3.1,1.2-4.2,0c-0.9-0.9-1.1-2.3-0.6-3.4
	l-5.9-5.9c-1.1,0.5-2.5,0.3-3.4-0.6C3.8,9.4,3.6,9.1,3.5,8.7H0l0,13.1c0,1.1,0.9,2.1,2.1,2.1l19.8,0c1.1,0,2.1-0.9,2.1-2.1V2.1
	C23.9,0.9,23,0,21.8,0L21.8,0z"/>
</svg>
