<svg id="Layer_1" height="512" viewBox="0 0 512 512" width="512" xmlns="http://www.w3.org/2000/svg" data-name="Layer 1"><g fill="#d4e1f4"><path d="m282.205 104.6a5.991 5.991 0 0 0 1.67-5.656l-2.265-9.715c-1.019.158-2.045.345-3.082.573z"/><path d="m188.229 127.84c-5.681-2.813-11.647-7.958-16.864-13.355 4.416 1.339 8.711 2.386 12.364 2.386 10.6 0 19.75-3.678 29.438-7.571 6.507-2.614 13.1-5.259 20.433-6.91-21.695-4.632-36.27 1.219-50.433 6.91-9.688 3.893-18.84 7.571-29.438 7.571-3.653 0-7.948-1.047-12.364-2.386 5.217 5.4 11.183 10.542 16.864 13.355 16.569 8.2 32.918 7.08 43.478 4.808a61.356 61.356 0 0 1 -13.478-4.808z"/><path d="m239.179 173.023c7.458-10.812 15.171-21.991 8.3-39.213a6 6 0 0 0 -7.537-3.447 73.528 73.528 0 0 1 -22.283 3.924c6.536 16.95-1.094 28.025-8.482 38.736-4.581 6.641-9.282 13.455-11.834 22.555 4.416-.571 9.866-.832 16.42-1.079 5.049-.191 10.27-.389 12.527-.887.624-.138 1.229-.294 1.825-.459 2.661-7.903 6.903-14.098 11.064-20.13z"/><path d="m208.086 145.853a19.25 19.25 0 0 0 -.235-2.337c-1.866.485-3.954.958-6.227 1.372q3.287.635 6.462.965z"/><path d="m76.031 305.936c0-65.745 37.542-126.045 98.921-160.48a73.67 73.67 0 0 1 -19.351-5.6c-67.661 33.22-109.57 96.614-109.57 166.082 0 104.248 94.192 189.062 209.969 189.062q7.566 0 15-.488c-108.8-6.949-194.969-88.868-194.969-188.576z"/></g><path d="m364.008 130.233-5.412 10.71c66.23 33.471 107.374 96.692 107.374 164.993 0 104.25-94.193 189.064-209.97 189.064s-209.969-84.814-209.969-189.064c0-70.334 42.957-134.445 112.108-167.314l-5.152-10.838c-73.375 34.877-118.956 103.141-118.956 178.152 0 53.823 23.167 104.389 65.234 142.383 41.896 37.841 97.559 58.681 156.735 58.681s114.839-20.84 156.735-58.681c42.068-38 65.235-88.561 65.235-142.383 0-72.854-43.67-140.179-113.962-175.703z" fill="#0635c9"/><path d="m117.022 396.291a6 6 0 0 0 -1.923 8.264 202.3 202.3 0 0 0 20.954 27.9 6 6 0 1 0 8.943-8 190.363 190.363 0 0 1 -19.71-26.243 6 6 0 0 0 -8.264-1.921z" fill="#0635c9"/><path d="m104.8 240.9a6 6 0 0 0 -7.657 3.658 184.121 184.121 0 0 0 -.5 121.34 6 6 0 0 0 11.357-3.911 172.117 172.117 0 0 1 .463-113.432 6 6 0 0 0 -3.663-7.655z" fill="#0635c9"/><path d="m152.905 138.594c21.684 10.737 42.9 8.052 54.946 4.922 1.384 8.292-2.764 14.306-8.55 22.692-6.207 9-13.933 20.2-15.574 37.263a6 6 0 0 0 9.768 5.221c2.647-1.519 14.394-1.963 20.723-2.2 6.09-.231 11.349-.429 14.661-1.16 22.549-4.978 31.393-23.5 36.679-34.566.294-.616.615-1.288.943-1.962 15.726 19.718 34.84 25.845 46.705 29.648 2.857.916 5.326 1.708 7.024 2.465 4.624 2.06 10.458 8.356 15.147 13.415 2.424 2.616 4.713 5.087 6.765 6.923a6 6 0 0 0 9.865-3.2 76.893 76.893 0 0 0 -6.035-49.978 75.287 75.287 0 0 0 -14.63-20.23 97.98 97.98 0 0 0 37.343-9.6c22.022-10.682 38.48-33.484 39.169-34.449a6 6 0 0 0 -7.2-9.024c-.235.1-23.824 9.768-47.982 2.935-6.38-1.805-12.952-4.93-19.91-8.239-16.307-7.754-34.608-16.457-57.132-11.323l-14.675-59.082a18.515 18.515 0 0 0 -36.019 8.591l14.889 63.875c-27.4-6.92-45.929.525-61.132 6.635-8.954 3.6-16.687 6.7-24.964 6.7-3.322 0-9.211-1.933-14.408-3.638-5.344-1.754-10.393-3.411-14.468-3.734a6 6 0 0 0 -5.366 9.456c2.764 3.894 17.363 23.695 33.418 31.644zm.824-21.723c10.6 0 19.75-3.678 29.438-7.571 16.707-6.713 33.981-13.655 62.846-3.343a6 6 0 0 0 7.862-7.013l-17.245-73.979a6.516 6.516 0 0 1 12.679-3.009l21.867 88.021a6 6 0 0 0 11.646-2.894l-4.294-17.283c18.462-4.061 34.006 3.332 49.082 10.5 7.429 3.532 14.445 6.869 21.8 8.949 13.264 3.751 26.186 3.313 36.262 1.753-5.979 5.893-13.7 12.306-22.223 16.441a87.418 87.418 0 0 1 -49.777 7.741 6 6 0 0 0 -3.853 11.13 65.03 65.03 0 0 1 25.392 27.068 63.737 63.737 0 0 1 6.508 30.144c-5.089-5.417-10.7-10.946-16.6-13.576a84.352 84.352 0 0 0 -8.247-2.931c-12.327-3.951-30.957-9.922-45.08-31.351a6 6 0 0 0 -5.009-2.7c-.064 0-.129 0-.193 0-5.923.19-8.673 5.948-11.857 12.616-4.9 10.257-11.606 24.3-28.437 28.019-2.257.5-7.478.7-12.527.887-6.554.247-12 .508-16.42 1.079 2.552-9.1 7.253-15.914 11.834-22.555 7.458-10.812 15.171-21.991 8.3-39.213a6 6 0 0 0 -7.537-3.447c-8.246 2.858-29.793 8.332-51.715-2.523-5.681-2.813-11.647-7.958-16.864-13.355 4.414 1.348 8.709 2.395 12.362 2.395z" fill="#1ae5be"/></svg>